# xmcd CD database file
#
# Track frame offsets:
#	150
#	19185
#	37257
#	57532
#	82115
#	102543
#	125788
#	144846
#	168701
#	192568
#	204438
#	221875
#
# Disc length: 3223 seconds
#
# Revision: 0
# Processed by: cddbd v1.5.2PL0 Copyright (c) Steve Scherf et al.
# Submitted via: CDex 1.70beta3
#
DISCID=c40c950c
DTITLE=カンザスシティバンド - 大人の夜のビッグバンドブルース
DYEAR=2013
DGENRE=Jazz
TTITLE0=夢は夜ひらく
TTITLE1=トガってるDaddy-O
TTITLE2=ミッドナイトロンサムブルース
TTITLE3=低気圧ガール
TTITLE4=夕焼けのメロディ
TTITLE5=緋牡丹おばあちゃん
TTITLE6=網走番外地
TTITLE7=Love For Sale Blues
TTITLE8=新しい町
TTITLE9=励まし系俺式
TTITLE10=ちょっとそこ行くレイディ
TTITLE11=帰り道
EXTD=YEAR: 2013
EXTT0=
EXTT1=
EXTT2=
EXTT3=
EXTT4=
EXTT5=
EXTT6=
EXTT7=
EXTT8=
EXTT9=
EXTT10=
EXTT11=
PLAYORDER=
